<?xml version="1.0" encoding="utf-8"?>
<!-- Generator: Adobe Illustrator 22.0.1, SVG Export Plug-In . SVG Version: 6.00 Build 0)  -->
<svg version="1.1" id="Vrstva_1" xmlns="http://www.w3.org/2000/svg" xmlns:xlink="http://www.w3.org/1999/xlink" x="0px" y="0px"
	 viewBox="0 0 16 16" style="enable-background:new 0 0 16 16;" xml:space="preserve">
<style type="text/css">
	.st0{fill:#03F7EB;}
</style>
<polygon class="st0" points="6.5,9.1 5.3,5.8 1.6,15 10.6,15 11.4,13 4.9,13 "/>
<polygon class="st0" points="9.2,2.3 6.7,2.3 6.3,3.2 7.5,6.6 "/>
<polygon class="st0" points="5.3,0.5 3.2,0.5 5,5.1 6,2.5 "/>
<path class="st0" d="M8.2,12.4h1.7l4.4-11.9h-2L9.9,7C9.6,7.7,9.5,8.2,9.4,8.5C9.3,8.8,9.2,9.2,9,9.8H8.9c-0.2-0.6-0.3-1-0.4-1.3
	C8.5,8.3,8.3,7.8,8,7l0,0L7,9.5L8.2,12.4z"/>
<polygon class="st0" points="7.5,6.6 6.3,3.2 5.3,5.8 6.5,9.1 "/>
</svg>
